<svg width="146" height="146" viewBox="0 0 146 146" fill="none" xmlns="http://www.w3.org/2000/svg">
<path d="M58.5232 103.224C61.6792 102.395 64.4968 101.121 66.9498 99.3831C69.3833 97.661 71.358 95.4294 72.8083 92.676C74.2449 89.957 74.9643 86.7226 74.9643 82.9669C74.9643 78.3332 73.863 74.3813 71.6134 71.0782C69.3749 67.7973 65.9995 65.4903 61.4403 64.1803C64.7885 62.597 67.2935 60.5576 68.9987 58.0718C70.6906 55.5821 71.5366 52.4675 71.5366 48.7393C71.5366 45.2924 70.9708 42.3769 69.8416 40.0489C68.6853 37.6858 67.0706 35.8097 65.0079 34.3991C62.9124 32.989 60.4319 31.9603 57.5263 31.3437C54.6039 30.7107 51.4071 30.4041 47.8639 30.4041H12.9443V104.471H48.8444C52.1624 104.471 55.4036 104.054 58.5232 103.224ZM29.2535 43.0206H44.5107C45.9526 43.0206 47.3616 43.1235 48.7049 43.3861C50.0726 43.6208 51.2511 44.0562 52.2947 44.6865C53.3467 45.292 54.1788 46.1571 54.8077 47.2626C55.4151 48.3681 55.7171 49.7924 55.7171 51.5156C55.7171 54.6192 54.8077 56.8826 52.9319 58.2515C51.037 59.6425 48.6445 60.3279 45.7553 60.3279H29.2539V43.0206H29.2535ZM29.2535 91.856V71.4601H46.9824C50.4927 71.4601 53.3463 72.2674 55.4858 73.8905C57.6226 75.5373 58.6964 78.2468 58.6964 82.0644C58.6964 84.0116 58.3807 85.624 57.7216 86.8652C57.0653 88.1175 56.1616 89.1022 55.071 89.8205C53.9804 90.5674 52.6869 91.0728 51.2285 91.3916C49.792 91.7131 48.2649 91.8556 46.6556 91.8556H29.2535V91.856Z" fill="white"/>
<path d="M87.1453 98.0617C89.5429 100.553 92.3938 102.465 95.8051 103.828C99.2191 105.175 103.02 105.859 107.245 105.859C113.306 105.859 118.508 104.471 122.774 101.684C127.088 98.9103 130.252 94.3017 132.337 87.8457H119.365C118.862 89.5059 117.563 91.1045 115.429 92.5999C113.276 94.0968 110.708 94.848 107.736 94.848C103.605 94.848 100.417 93.7647 98.2114 91.6099C95.9974 89.4554 94.5639 85.4413 94.5639 81.202H133.263C133.54 77.0411 133.203 73.0667 132.238 69.2625C131.266 65.4517 129.711 62.0542 127.525 59.0836C125.339 56.1077 122.556 53.7305 119.162 51.9766C115.756 50.1984 111.782 49.3249 107.245 49.3249C103.136 49.3249 99.4251 50.0554 96.0604 51.5072C92.6958 52.964 89.8067 54.9594 87.3705 57.4877C84.9397 60.0022 83.0915 63.0003 81.7536 66.4743C80.4436 69.9364 79.7734 73.6826 79.7734 77.6929C79.7734 81.84 80.4191 85.6672 81.6989 89.1244C82.9925 92.6003 84.8078 95.5586 87.1453 98.0617ZM95.2367 68.3837C95.6128 67.045 96.2611 65.7927 97.2114 64.6058C98.1671 63.4384 99.4171 62.4468 100.941 61.6505C102.501 60.8432 104.448 60.4475 106.802 60.4475C110.419 60.4475 113.386 61.4953 115.135 63.433C116.893 65.3856 118.178 68.1623 118.53 71.9184H94.5635C94.6323 70.8722 94.8579 69.6883 95.2367 68.3837Z" fill="white"/>
<path d="M121.574 35.3727H91.551V42.6816H121.574V35.3727Z" fill="white"/>
</svg>
