<svg width="109" height="109" viewBox="0 0 109 109" fill="none" xmlns="http://www.w3.org/2000/svg">
<g clip-path="url(#clip0_523_62)">
<path d="M76.5283 0H32.4717C14.5667 0 0 14.5667 0 32.4717V76.5283C0 94.4333 14.5667 109 32.4717 109H76.5283C94.4333 109 109 94.4333 109 76.5283V32.4717C109 14.5667 94.4331 0 76.5283 0ZM98.0346 76.5283C98.0346 88.4058 88.4058 98.0346 76.5283 98.0346H32.4717C20.5942 98.0346 10.9654 88.4058 10.9654 76.5283V32.4717C10.9654 20.594 20.5942 10.9654 32.4717 10.9654H76.5283C88.4058 10.9654 98.0346 20.594 98.0346 32.4717V76.5283Z" fill="white"/>
<path d="M54.5001 26.3087C38.9554 26.3087 26.3088 38.9553 26.3088 54.4998C26.3088 70.0443 38.9554 82.6911 54.5001 82.6911C70.0448 82.6911 82.6914 70.0445 82.6914 54.4998C82.6914 38.9551 70.0448 26.3087 54.5001 26.3087ZM54.5001 71.7259C44.9864 71.7259 37.2742 64.0137 37.2742 54.5C37.2742 44.9863 44.9866 37.2741 54.5001 37.2741C64.0138 37.2741 71.726 44.9863 71.726 54.5C71.726 64.0135 64.0136 71.7259 54.5001 71.7259Z" fill="white"/>
<path d="M82.745 33.2758C86.4757 33.2758 89.5 30.2515 89.5 26.5208C89.5 22.7901 86.4757 19.7657 82.745 19.7657C79.0143 19.7657 75.99 22.7901 75.99 26.5208C75.99 30.2515 79.0143 33.2758 82.745 33.2758Z" fill="white"/>
</g>
<defs>
<clipPath id="clip0_523_62">
<rect width="109" height="109" fill="white"/>
</clipPath>
</defs>
</svg>
