<svg width="67" height="31" viewBox="0 0 67 31" fill="none" xmlns="http://www.w3.org/2000/svg">
<g clip-path="url(#clip0_11_12)">
<path d="M25.6663 29.6465C25.2074 29.8124 24.7234 29.8976 24.2356 29.8986C22.4034 29.8986 20.4866 28.8027 18.974 26.9397H13.4311C12.4864 29.0191 10.4959 29.7589 9.28357 30.2794C10.9191 29.6341 12.6621 29.3069 14.4196 29.315C16.7377 29.315 19.3071 29.8246 22.7584 30.6685C23.6125 30.8823 24.4885 30.9963 25.3687 31.0082C28.607 31.0082 31.2365 29.4383 32.6918 26.9479H28.3231C27.7633 28.2328 26.8568 29.2027 25.6663 29.6465Z" fill="#D300CB"/>
<path d="M16.948 23.3507C15.3097 18.7452 16.4838 14.0986 19.602 12.9561C20.0749 12.7855 20.5739 12.6992 21.0764 12.7014C23.8069 12.7014 26.8431 15.3233 28.2766 19.252C28.7569 20.5823 29.0071 21.9851 29.0166 23.4H33.8577C34.0471 21.5824 33.823 19.7455 33.2024 18.0274C32.0665 14.7726 30.2535 12.4055 25.6226 11.2329C24.9455 11.0657 24.8636 10.6411 25.1994 10.1781C27.6432 7.0082 28.749 -1.0192 18.5043 0.12053C14.8428 0.547927 7.89376 5.73149 11.7656 16.5068C13.1308 19.389 13.7642 21.6438 13.9253 23.4H16.9671L16.948 23.3507ZM12.7786 5.56163C14.3376 2.2219 18.4224 0.575324 20.4402 1.04108C23.5994 1.75889 21.5324 7.54793 19.5146 10.4219C18.7583 11.5068 16.1889 15.3233 14.4196 15.3233C11.7656 15.2383 11.0529 9.23834 12.7786 5.56163Z" fill="#D300CB"/>
<path d="M43.7447 21.2383C42.86 17.3068 43.7856 15.1534 45.929 14.937C47.8649 14.726 50.9012 16.5808 54.8986 21.5698L52.5395 9.95066C52.6241 10.7123 52.5395 13.2055 51.6985 14.0055C51.3654 14.3068 50.65 14.5205 49.6943 14.5205C46.9966 14.5205 42.6197 12.9589 41.2299 7.80272C40.3043 4.3808 41.8606 3.11231 44.7249 2.94518C53.4842 2.47943 56.9382 9.4082 58.6229 14.1781L55.2099 0.698608C53.7354 1.63012 50.5681 2.01094 47.0431 2.01094C42.5378 2.01094 37.4428 1.41916 34.7888 0.698608C37.6011 1.72601 40.9569 15.5287 41.2299 23.4H44.2935C44.1024 22.7397 43.9221 22.0301 43.7447 21.2383Z" fill="#D300CB"/>
<path d="M40.6675 28.2192C40.0777 29.2356 39.0674 30.0384 36.9213 30.2904H53.7655C49.6042 29.8219 47.338 29.0603 45.8471 26.9507H41.0688C41.0033 27.3923 40.8678 27.8205 40.6675 28.2192Z" fill="#D300CB"/>
<path d="M61.5473 6.49585V6.15613C62.5551 6.26753 63.4902 6.73574 64.1849 7.47668C64.8257 8.12304 65.1892 8.99516 65.1979 9.90681C65.1886 10.4617 65.1134 11.0136 64.974 11.5506C64.8479 12.0242 64.7737 12.5102 64.7529 13C64.759 13.2464 64.8142 13.4892 64.915 13.7141C65.0158 13.9389 65.1602 14.1414 65.3399 14.3096C65.7796 14.7385 66.3536 15.0017 66.9645 15.0548V15.4548C66.3545 15.5072 65.7809 15.7683 65.3399 16.1945C65.1592 16.363 65.0141 16.5663 64.9133 16.7922C64.8124 17.0181 64.7579 17.2621 64.7529 17.5096C64.7735 17.9966 64.8477 18.4799 64.974 18.9506C65.1133 19.4878 65.1885 20.0396 65.1979 20.5945C65.185 21.502 64.8219 22.3692 64.1849 23.0137C63.4919 23.7559 62.5555 24.2228 61.5473 24.3287V23.9753C62.1824 23.861 62.7653 23.5484 63.2129 23.0822C63.5528 22.7073 63.7416 22.2191 63.7426 21.7123C63.7245 21.2008 63.6513 20.6928 63.5242 20.1972C63.3925 19.6727 63.3192 19.1352 63.3057 18.5945C63.3208 17.8919 63.5741 17.2154 64.0238 16.6767C64.5867 16.0022 65.3321 15.5055 66.17 15.2465C65.3362 14.9697 64.5971 14.4626 64.0375 13.7835C63.5843 13.2457 63.3264 12.5696 63.3057 11.8657C63.3192 11.325 63.3925 10.7875 63.5242 10.263C63.6513 9.76736 63.7245 9.25937 63.7426 8.74791C63.7411 8.24124 63.5524 7.75313 63.2129 7.37805C62.7615 6.9189 62.1798 6.6108 61.5473 6.49585V6.49585Z" stroke="#D300CB" stroke-width="0.25" stroke-miterlimit="10"/>
<path d="M5.46092 24.0603V24.4027C4.45352 24.2902 3.51872 23.8222 2.8233 23.0822C2.18001 22.4368 1.81354 21.5647 1.80211 20.6521C1.81218 20.0974 1.8864 19.5457 2.02328 19.0082C2.15152 18.5359 2.22662 18.0507 2.24717 17.5616C2.24129 17.3151 2.18632 17.0722 2.0855 16.8473C1.98468 16.6224 1.84006 16.42 1.66013 16.2521C1.21687 15.8203 0.637628 15.5568 0.0218506 15.5068V15.1178C0.636696 15.0685 1.21556 14.8071 1.66013 14.3781C1.84083 14.2096 1.98592 14.0063 2.08677 13.7804C2.18762 13.5545 2.24217 13.3105 2.24717 13.063C2.22658 12.5748 2.15147 12.0905 2.02328 11.6192C1.88601 11.0817 1.81178 10.5301 1.80211 9.97534C1.81307 9.06577 2.17637 8.19619 2.81511 7.55068C3.51149 6.80967 4.45095 6.34565 5.46092 6.24384V6.57534C4.82612 6.68871 4.24321 7.00033 3.79534 7.46575C3.45587 7.84084 3.26712 8.32894 3.26564 8.83562C3.28351 9.34709 3.35675 9.8551 3.48407 10.3507C3.61576 10.8752 3.68902 11.4127 3.70251 11.9534C3.68829 12.6562 3.43489 13.3329 2.9844 13.8712C2.41516 14.5457 1.66293 15.0396 0.819145 15.2932C1.6527 15.569 2.39182 16.0751 2.95163 16.7534C3.40439 17.2914 3.66231 17.9674 3.6834 18.6712C3.67024 19.212 3.59698 19.7495 3.46496 20.274C3.3378 20.7696 3.26456 21.2776 3.24652 21.789C3.24749 22.2958 3.4363 22.7841 3.77623 23.1589C4.2287 23.6305 4.81851 23.9461 5.46092 24.0603V24.0603Z" stroke="#D300CB" stroke-width="0.25" stroke-miterlimit="10"/>
</g>
<defs>
<clipPath id="clip0_11_12">
<rect width="67" height="31" fill="white"/>
</clipPath>
</defs>
</svg>
