<svg width="67" height="31" viewBox="0 0 67 31" fill="none" xmlns="http://www.w3.org/2000/svg">
<g clip-path="url(#clip0_1_64)">
<path d="M25.6663 29.6468C25.2074 29.8126 24.7234 29.8979 24.2356 29.8988C22.4034 29.8988 20.4866 28.803 18.974 26.9399H13.4311C12.4864 29.0194 10.4959 29.7591 9.28357 30.2797C10.9191 29.6344 12.6621 29.3071 14.4196 29.3153C16.7377 29.3153 19.3071 29.8249 22.7584 30.6687C23.6125 30.8826 24.4885 30.9966 25.3687 31.0084C28.607 31.0084 31.2365 29.4386 32.6918 26.9482H28.3231C27.7633 28.2331 26.8568 29.203 25.6663 29.6468Z" fill="#D300CB"/>
<path d="M16.948 23.3508C15.3097 18.7453 16.4838 14.0987 19.602 12.9563C20.0749 12.7856 20.5739 12.6994 21.0765 12.7015C23.8069 12.7015 26.8432 15.3234 28.2767 19.2522C28.7569 20.5824 29.0072 21.9853 29.0166 23.4001H33.8578C34.0472 21.5826 33.8231 19.7456 33.2024 18.0275C32.0666 14.7727 30.2535 12.4056 25.6227 11.233C24.9455 11.0659 24.8636 10.6412 25.1995 10.1782C27.6432 7.00832 28.7491 -1.01907 18.5044 0.120652C14.8428 0.548049 7.89382 5.73161 11.7656 16.507C13.1308 19.3891 13.7643 21.6439 13.9254 23.4001H16.9671L16.948 23.3508ZM12.7786 5.56175C14.3377 2.22202 18.4225 0.575446 20.4403 1.0412C23.5994 1.75901 21.5325 7.54805 19.5147 10.422C18.7583 11.507 16.189 15.3234 14.4196 15.3234C11.7656 15.2385 11.053 9.23846 12.7786 5.56175Z" fill="#D300CB"/>
<path d="M43.7447 21.2385C42.8601 17.3069 43.7857 15.1535 45.9291 14.9371C47.865 14.7261 50.9013 16.5809 54.8986 21.57L52.5395 9.95078C52.6242 10.7124 52.5395 13.2056 51.6985 14.0056C51.3654 14.3069 50.6501 14.5206 49.6944 14.5206C46.9967 14.5206 42.6198 12.959 41.23 7.80284C40.3043 4.38092 41.8607 3.11243 44.725 2.94531C53.4843 2.47955 56.9383 9.40832 58.623 14.1782L55.2099 0.69873C53.7355 1.63024 50.5681 2.01106 47.0431 2.01106C42.5379 2.01106 37.4428 1.41928 34.7888 0.69873C37.6012 1.72613 40.9569 15.5289 41.23 23.4001H44.2935C44.1024 22.7398 43.9222 22.0302 43.7447 21.2385Z" fill="#D300CB"/>
<path d="M40.6675 28.2192C40.0777 29.2356 39.0674 30.0384 36.9213 30.2904H53.7655C49.6042 29.8219 47.338 29.0603 45.8471 26.9507H41.0688C41.0033 27.3923 40.8678 27.8205 40.6675 28.2192Z" fill="#D300CB"/>
<path d="M61.5472 6.49598V6.15625C62.555 6.26766 63.4902 6.73586 64.1849 7.4768C64.8256 8.12316 65.1892 8.99529 65.1979 9.90694C65.1885 10.4619 65.1133 11.0137 64.974 11.5508C64.8479 12.0244 64.7737 12.5103 64.7528 13.0001C64.759 13.2466 64.8141 13.4893 64.9149 13.7142C65.0157 13.9391 65.1602 14.1415 65.3398 14.3097C65.7796 14.7386 66.3535 15.0019 66.9645 15.0549V15.4549C66.3544 15.5073 65.7809 15.7684 65.3398 16.1946C65.1591 16.3631 65.0141 16.5664 64.9132 16.7923C64.8124 17.0182 64.7578 17.2622 64.7528 17.5097C64.7734 17.9967 64.8476 18.48 64.974 18.9508C65.1133 19.4879 65.1884 20.0397 65.1979 20.5946C65.1849 21.5021 64.8218 22.3693 64.1849 23.0138C63.4918 23.7561 62.5554 24.2229 61.5472 24.3289V23.9754C62.1823 23.8611 62.7652 23.5486 63.2128 23.0823C63.5527 22.7075 63.7416 22.2192 63.7425 21.7124C63.7245 21.201 63.6512 20.693 63.5241 20.1973C63.3924 19.6729 63.3191 19.1353 63.3057 18.5946C63.3207 17.892 63.574 17.2155 64.0238 16.6768C64.5866 16.0023 65.332 15.5056 66.1699 15.2467C65.3362 14.9698 64.5971 14.4627 64.0374 13.7836C63.5843 13.2459 63.3263 12.5698 63.3057 11.8658C63.3191 11.3251 63.3924 10.7876 63.5241 10.2631C63.6512 9.76748 63.7245 9.25949 63.7425 8.74803C63.741 8.24136 63.5523 7.75325 63.2128 7.37817C62.7614 6.91902 62.1797 6.61092 61.5472 6.49598V6.49598Z" stroke="#D300CB" stroke-width="0.25" stroke-miterlimit="10"/>
<path d="M5.46092 24.0603V24.4028C4.45352 24.2902 3.51872 23.8222 2.8233 23.0823C2.18001 22.4369 1.81354 21.5648 1.80211 20.6521C1.81218 20.0974 1.8864 19.5458 2.02328 19.0083C2.15152 18.536 2.22662 18.0508 2.24717 17.5617C2.24129 17.3152 2.18632 17.0723 2.0855 16.8474C1.98468 16.6225 1.84006 16.4201 1.66013 16.2521C1.21687 15.8203 0.637628 15.5568 0.0218506 15.5069V15.1179C0.636696 15.0685 1.21556 14.8072 1.66013 14.3781C1.84083 14.2096 1.98592 14.0064 2.08677 13.7804C2.18762 13.5545 2.24217 13.3106 2.24717 13.0631C2.22658 12.5749 2.15147 12.0906 2.02328 11.6192C1.88601 11.0818 1.81178 10.5301 1.80211 9.9754C1.81307 9.06584 2.17637 8.19625 2.81511 7.55075C3.51149 6.80973 4.45095 6.34571 5.46092 6.2439V6.5754C4.82612 6.68877 4.24321 7.00039 3.79534 7.46581C3.45587 7.8409 3.26712 8.32901 3.26564 8.83568C3.28351 9.34715 3.35675 9.85516 3.48407 10.3507C3.61576 10.8752 3.68902 11.4128 3.70251 11.9535C3.68829 12.6563 3.43489 13.333 2.9844 13.8713C2.41516 14.5457 1.66293 15.0397 0.819145 15.2932C1.6527 15.569 2.39182 16.0752 2.95163 16.7535C3.40439 17.2915 3.66231 17.9675 3.6834 18.6713C3.67024 19.212 3.59698 19.7496 3.46496 20.274C3.3378 20.7697 3.26456 21.2776 3.24652 21.7891C3.24749 22.2959 3.4363 22.7842 3.77623 23.159C4.2287 23.6306 4.81851 23.9462 5.46092 24.0603V24.0603Z" stroke="#D300CB" stroke-width="0.25" stroke-miterlimit="10"/>
</g>
<defs>
<clipPath id="clip0_1_64">
<rect width="67" height="31" fill="white"/>
</clipPath>
</defs>
</svg>
