<svg width="131" height="131" viewBox="0 0 131 131" fill="none" xmlns="http://www.w3.org/2000/svg">
<g clip-path="url(#clip0_523_44)">
<path fill-rule="evenodd" clip-rule="evenodd" d="M112.744 75.5699C117.09 79.8125 121.676 83.8041 125.573 88.4745C127.295 90.5499 128.925 92.6917 130.172 95.1003C131.939 98.5242 130.339 102.292 127.268 102.496L108.184 102.488C103.262 102.896 99.3351 100.915 96.0334 97.5493C93.3911 94.8579 90.9443 91.9935 88.4035 89.2114C87.3619 88.0742 86.2717 87.0042 84.9693 86.1585C82.364 84.4674 80.1026 84.9852 78.6138 87.7023C77.0975 90.466 76.7536 93.5262 76.6047 96.6063C76.4002 101.1 75.0418 102.282 70.5277 102.487C60.8804 102.942 51.7247 101.483 43.2194 96.6162C35.7208 92.3258 29.9059 86.2691 24.8447 79.4122C14.9904 66.0604 7.44402 51.389 0.661594 36.3065C-0.865075 32.9084 0.251412 31.0843 4.00073 31.0197C10.2266 30.8988 16.4517 30.9074 22.6849 31.0111C25.2153 31.0482 26.8904 32.4995 27.8675 34.89C31.2359 43.1724 35.3575 51.0524 40.531 58.3565C41.9088 60.3011 43.3136 62.2457 45.3142 63.6144C47.5274 65.1298 49.2124 64.6276 50.2536 62.1622C50.9143 60.5989 51.2035 58.9151 51.3524 57.2408C51.8457 51.4806 51.9107 45.7303 51.0455 39.9904C50.5144 36.4081 48.4967 34.089 44.9221 33.4111C43.098 33.0655 43.3696 32.3867 44.2528 31.3456C45.7868 29.5499 47.2295 28.4321 50.1055 28.4321H71.6739C75.0694 29.1023 75.8235 30.6276 76.2883 34.0442L76.3068 58.0022C76.2698 59.3249 76.9675 63.2498 79.3498 64.1253C81.2566 64.7485 82.5134 63.2231 83.6574 62.0141C88.8215 56.5332 92.5071 50.056 95.7997 43.3489C97.261 40.3997 98.5173 37.3369 99.735 34.2767C100.637 32.0058 102.053 30.8885 104.611 30.938L125.369 30.9565C125.984 30.9565 126.607 30.9655 127.203 31.0675C130.701 31.6636 131.66 33.1684 130.58 36.5841C128.877 41.9432 125.565 46.4091 122.327 50.8957C118.865 55.6858 115.163 60.3118 111.73 65.1303C108.576 69.5304 108.826 71.7483 112.744 75.5699Z" fill="white"/>
</g>
<defs>
<clipPath id="clip0_523_44">
<rect width="131" height="131" fill="white"/>
</clipPath>
</defs>
</svg>
